<?xml version="1.0" standalone="no"?>
<!DOCTYPE svg PUBLIC "-//W3C//DTD SVG 20010904//EN"
 "http://www.w3.org/TR/2001/REC-SVG-20010904/DTD/svg10.dtd">
<svg version="1.0" xmlns="http://www.w3.org/2000/svg"
 width="1080.000000pt" height="1080.000000pt" viewBox="0 0 1080.000000 1080.000000"
 preserveAspectRatio="xMidYMid meet">

<g transform="translate(0.000000,1080.000000) scale(0.100000,-0.100000)"
fill="#000000" stroke="none">
<path d="M0 5400 l0 -5400 5400 0 5400 0 0 5400 0 5400 -5400 0 -5400 0 0
-5400z m5734 3680 c267 -268 316 -322 307 -337 -17 -33 -627 -643 -641 -643
-16 0 -605 588 -635 633 l-18 29 319 319 c175 175 326 319 335 319 8 0 158
-144 333 -320z m-802 -1036 c238 -240 619 -622 846 -849 234 -236 412 -421
412 -431 0 -10 -78 -96 -174 -192 l-173 -174 -336 339 c-704 709 -1008 1008
-1025 1011 -11 2 -107 -88 -281 -262 -204 -205 -261 -267 -255 -279 5 -9 103
-111 217 -226 114 -116 207 -214 207 -219 0 -11 -302 -316 -334 -338 l-29 -19
-394 400 c-216 220 -393 405 -393 411 0 19 1241 1264 1260 1264 11 0 201 -184
452 -436z m2009 -184 c361 -363 615 -628 617 -641 3 -17 -145 -171 -721 -748
-398 -399 -773 -777 -833 -839 -60 -63 -121 -120 -135 -128 -27 -13 -28 -12
-193 158 -113 115 -166 176 -164 189 2 10 298 315 659 678 361 362 659 668
662 680 4 17 -42 69 -246 277 -138 141 -260 260 -270 266 -16 8 -50 -21 -236
-206 -120 -119 -224 -216 -231 -216 -22 0 -340 327 -340 349 0 20 26 47 504
529 189 190 277 272 292 272 16 0 198 -177 635 -620z m-1830 -925 c90 -90 165
-171 167 -179 4 -17 18 -3 -685 -708 -448 -450 -558 -556 -571 -549 -10 5 -91
84 -180 175 -149 151 -163 167 -150 184 34 48 1225 1242 1239 1242 8 0 89 -74
180 -165z m-2261 -464 c96 -99 477 -484 845 -856 369 -372 671 -680 673 -684
3 -10 -319 -336 -340 -344 -23 -8 -38 5 -248 219 -398 406 -1108 1114 -1116
1114 -5 0 -15 -4 -23 -9 -14 -9 -498 -488 -521 -516 -11 -13 26 -55 256 -285
147 -149 275 -270 282 -270 8 0 108 95 223 210 115 116 216 210 226 210 25 0
343 -320 343 -345 0 -25 -768 -795 -793 -795 -22 0 -1251 1234 -1255 1260 -2
14 162 185 620 645 343 344 630 625 638 625 8 0 93 -81 190 -179z m5417 52
c63 -65 343 -346 620 -625 278 -279 503 -512 501 -518 -4 -13 -129 -141 -752
-767 -364 -366 -503 -500 -515 -495 -9 3 -235 227 -502 496 -268 270 -639 644
-825 831 -307 307 -374 378 -374 396 0 3 74 81 164 172 103 105 171 167 184
167 12 0 119 -102 302 -287 613 -625 1044 -1053 1060 -1053 18 0 540 522 540
539 0 5 -119 129 -265 275 -195 195 -269 263 -283 259 -10 -2 -110 -96 -222
-209 -112 -112 -211 -204 -220 -204 -14 0 -319 297 -341 331 -4 7 -4 19 0 27
4 8 178 187 387 398 280 284 385 384 402 384 16 0 58 -35 139 -117z m-3137
-515 c94 -95 371 -374 616 -619 244 -245 444 -451 444 -458 0 -29 -318 -343
-347 -343 -15 0 -198 176 -628 608 -334 335 -610 618 -615 629 -7 17 18 46
158 187 92 93 175 168 184 168 9 0 94 -78 188 -172z m-14 -914 c117 -119 161
-170 157 -182 -3 -9 -169 -181 -368 -382 -199 -201 -498 -502 -664 -669 -165
-167 -301 -310 -301 -318 0 -19 521 -543 541 -543 8 0 111 97 228 215 117 118
218 215 224 215 16 0 336 -333 336 -350 0 -19 -770 -800 -789 -800 -14 0
-1213 1200 -1246 1247 -13 19 -14 25 -2 37 7 7 276 279 597 602 321 324 697
703 835 842 156 157 258 252 270 252 12 0 82 -64 182 -166z m1819 0 c91 -91
165 -171 165 -178 0 -22 -1225 -1246 -1247 -1246 -24 0 -346 325 -341 345 6
23 1222 1245 1240 1245 9 0 92 -75 183 -166z m235 -1138 c206 -207 379 -387
384 -400 9 -23 -32 -66 -595 -631 -332 -334 -613 -616 -623 -626 -11 -10 -25
-19 -31 -19 -14 0 -1678 1669 -1694 1698 -6 11 -11 24 -11 28 0 17 325 334
343 334 11 0 281 -265 685 -670 366 -368 670 -670 676 -670 18 0 527 514 533
539 5 20 -23 52 -199 230 -113 113 -208 215 -212 225 -5 15 28 54 163 188 144
144 172 168 188 159 10 -5 187 -179 393 -385z m-1657 -1348 c49 -51 188 -192
308 -313 120 -122 219 -226 219 -233 0 -25 -614 -642 -639 -642 -18 0 -131
109 -504 488 -83 84 -137 147 -135 156 6 28 619 636 641 636 12 0 55 -36 110
-92z"/>
</g>
</svg>
